# xmcd
#
# Track frame offsets:
#	150
#	19221
#	34185
#	49925
#	63788
#	79560
#	96242
#	111298
#	128632
#	144421
#	158201
#	174166
#	192823
#	212035
#	228427
#	239627
#	254906
#
# Disc length: 3598
#
# Revision: 4
# Processed by: cddbd v1.5.1PL0 Copyright (c) Steve Scherf et al.
# Submitted via: FreeRIP 2.60 
# Normalized: r3:DSETVAR1,TDELIM( - )
#
DISCID=ea0e0c11
DTITLE=Various Artist - Promo Only Country Radio January 2002
DYEAR=2002
DGENRE=Country
TTITLE0=Gary Allan - The One
TTITLE1=Trick Pony - Just What I Do
TTITLE2=Tommy Shane Steiner - What If She's An Angel
TTITLE3=Chely Wright - Jezebel
TTITLE4=Sawyer Brown - Circles
TTITLE5=Carloyn Dawn Johnson - I Don't Want You To Go
TTITLE6=Ty Herndon - Heather's Wall
TTITLE7=Nickel Creek - The Lighthouse's Tale
TTITLE8=Jolie and The Wanted - Party On The Patio
TTITLE9=The Tractors - The Big Night
TTITLE10=Wild Horses - I Will Survive
TTITLE11=Eilleen Shania Twain - The Heart Is Blind
TTITLE12=Gary Morris - Lone Star Night
TTITLE13=Danni Leigh - Sometimes
TTITLE14=Rice, Rice, Hillman and Pedersen - San Antone
TTITLE15=Kaley - Hillbillie
TTITLE16=Ray Stevens - Osama-Yo' Mama
EXTD=
EXTT0=
EXTT1=
EXTT2=
EXTT3=
EXTT4=
EXTT5=
EXTT6=
EXTT7=
EXTT8=
EXTT9=
EXTT10=
EXTT11=
EXTT12=
EXTT13=
EXTT14=
EXTT15=
EXTT16=
PLAYORDER=
